<svg width="94" height="94" viewBox="0 0 94 94" fill="none" xmlns="http://www.w3.org/2000/svg">
<g id="Frame">
<g id="Group">
<path id="Vector" d="M72.9777 40.2832C71.9907 40.2828 71.0121 40.4648 70.0911 40.8199C69.0991 37.4928 66.0131 35.0592 62.3679 35.0592C61.3509 35.0589 60.3431 35.2521 59.3984 35.6286C58.3266 32.4353 55.3078 30.1272 51.758 30.1272C50.8664 30.1272 50.0092 30.2748 49.2069 30.5434V22.0118C49.2069 17.5683 45.5918 13.9529 41.1481 13.9529C36.7044 13.9529 33.0892 17.5681 33.0892 22.0118V56.8694L29.9417 52.1974L29.8686 52.1065C26.7841 48.2723 21.3576 47.4202 17.2464 50.1248C15.0967 51.539 13.6402 53.7085 13.1455 56.2335C12.6542 58.7406 13.173 61.2812 14.6065 63.3933L28.6342 85.5048L28.6894 85.5887C30.4704 88.1826 32.8561 90.3039 35.6405 91.7694C38.4249 93.2349 41.5242 94.0005 44.6707 94H60.4141C71.7855 94 81.0366 84.7487 81.0366 73.3775V48.3423C81.0366 43.8984 77.4214 40.2832 72.9777 40.2832ZM75.5288 73.3775C75.5288 81.7119 68.7483 88.4922 60.4141 88.4922H44.6707C42.4263 88.4926 40.2152 87.9485 38.2273 86.9066C36.2393 85.8647 34.5338 84.3561 33.257 82.5101L19.2329 60.4042L19.1776 60.3203C18.5655 59.4291 18.343 58.354 18.5508 57.293C18.7588 56.2322 19.3708 55.3205 20.274 54.7264C21.0875 54.187 22.0711 53.9657 23.0372 54.1048C24.0033 54.2438 24.8845 54.7335 25.5129 55.4804L38.5976 74.9039V22.012C38.5976 20.6055 39.7419 19.4609 41.1486 19.4609C42.5553 19.4609 43.6997 20.6053 43.6997 22.012V49.5318H49.2075V38.186C49.2075 36.7795 50.3518 35.635 51.7585 35.635C53.1652 35.635 54.3096 36.7793 54.3096 38.186V49.5318H59.8174V43.1179C59.8174 41.7114 60.9617 40.5669 62.3684 40.5669C63.7751 40.5669 64.9194 41.7112 64.9194 43.1179V49.5318H70.4273V48.3421C70.4273 46.9354 71.5716 45.7909 72.9783 45.7909C74.385 45.7909 75.5293 46.9352 75.5293 48.3421V73.3775H75.5288ZM38.2405 0H43.7483V7.61914H38.2405V0ZM47.281 8.88392L52.4134 3.25255L56.4842 6.96261L51.3519 12.594L47.281 8.88392Z" fill="white"/>
<path id="Vector_2" d="M53.11 15.9031L60.6964 15.1975L61.2064 20.6816L53.62 21.3872L53.11 15.9031ZM25.3355 6.95985L29.4064 3.2496L34.5387 8.88079L30.4679 12.5909L25.3355 6.95985ZM20.6133 20.6838L21.1233 15.1999L28.7098 15.9053L28.1998 21.3894L20.6133 20.6838Z" fill="white"/>
</g>
</g>
</svg>
